<svg xmlns="http://www.w3.org/2000/svg" viewBox="0 0 64 64" width="64" height="64">
  <!-- Hexágono externo (borda preta) -->
  <path d="M32,4 L56,18 L56,46 L32,60 L8,46 L8,18 Z" 
        stroke="black" 
        stroke-width="2" 
        fill="white"/>
  
  <!-- Hexágono interno (linha turquesa) -->
  <path d="M32,8 L52,20 L52,44 L32,56 L12,44 L12,20 Z" 
        stroke="#00B2D6" 
        stroke-width="1.5" 
        fill="none"/>
  
  <!-- Capacete simplificado -->
  <g transform="translate(17, 16)">
    <!-- Capacete parte superior -->
    <path d="M15,8 C8,8 4,12 4,18 L4,22 L26,22 L26,18 C26,12 22,8 15,8 Z" 
          fill="black"/>
    
    <!-- Detalhes do capacete (ranhuras) - simplificados -->
    <path d="M10,8 L10,21 M15,8 L15,21 M20,8 L20,21" 
          stroke="white" 
          stroke-width="1.5"/>
    
    <!-- Base do capacete -->
    <rect x="4" y="22" width="22" height="2" fill="black"/>
    
    <!-- Engrenagem simplificada -->
    <path d="M15,25 C12,25 10,27 10,30 C10,33 12,35 15,35 C18,35 20,33 20,30 C20,27 18,25 15,25 Z" 
          fill="black"/>
    
    <!-- Detalhe central da engrenagem -->
    <rect x="13" y="29" width="4" height="2" fill="white"/>
  </g>
</svg> 